<svg xmlns="http://www.w3.org/2000/svg" viewBox="0 0 512 512" fill="none">
  <!-- Glowing circular borders -->
  <circle cx="256" cy="256" r="230" stroke="#0070f3" stroke-width="12" stroke-linecap="round" opacity="0.8"/>
  <circle cx="256" cy="256" r="210" stroke="#22d3ee" stroke-width="8" opacity="0.9"/>
  
  <!-- Left bar chart elements -->
  <rect x="80" y="240" width="18" height="80" rx="9" fill="#22d3ee" />
  <rect x="110" y="200" width="18" height="120" rx="9" fill="#0070f3" />
  <rect x="140" y="250" width="18" height="70" rx="9" fill="#8b5cf6" />
  
  <!-- Right bar chart elements -->
  <rect x="414" y="240" width="18" height="80" rx="9" fill="#22d3ee" />
  <rect x="384" y="200" width="18" height="120" rx="9" fill="#0070f3" />
  <rect x="354" y="250" width="18" height="70" rx="9" fill="#8b5cf6" />
  
  <!-- Stylized Cat/Developer Silhouette -->
  <!-- Head shape -->
  <path d="M190 280 C190 200, 322 200, 322 280 C322 340, 190 340, 190 280 Z" fill="#ffffff" />
  <!-- Left Ear -->
  <path d="M190 240 L160 170 C160 170, 205 185, 215 210 Z" fill="#ffffff" />
  <!-- Right Ear -->
  <path d="M322 240 L352 170 C352 170, 307 185, 297 210 Z" fill="#ffffff" />
  
  <!-- Connected Commit Nodes -->
  <path d="M210 290 L256 260 L302 290" stroke="#0070f3" stroke-width="12" stroke-linecap="round" stroke-linejoin="round" />
  <circle cx="210" cy="290" r="16" fill="#22d3ee" stroke="#ffffff" stroke-width="4" />
  <circle cx="256" cy="260" r="16" fill="#22d3ee" stroke="#ffffff" stroke-width="4" />
  <circle cx="302" cy="290" r="16" fill="#22d3ee" stroke="#ffffff" stroke-width="4" />
</svg>